<?xml version="1.0" encoding="utf-8"?>
<!-- Generator: Adobe Illustrator 28.1.0, SVG Export Plug-In . SVG Version: 6.00 Build 0)  -->
<svg version="1.1" id="Capa_1" xmlns="http://www.w3.org/2000/svg" xmlns:xlink="http://www.w3.org/1999/xlink" x="0px" y="0px"
	 viewBox="0 0 1695.3 908.6" style="enable-background:new 0 0 1695.3 908.6;" xml:space="preserve">
<style type="text/css">
	.st0{fill:#124280;}
	.st1{fill:#0F498A;}
	.st2{fill:#FEFEFE;}
	.st3{fill:#CFDDEA;}
	.st4{fill:#C2D3E3;}
	.st5{fill:#C1D2E2;}
	.st6{fill:#114384;}
	.st7{fill:#1D4686;}
	.st8{fill:#1F4B8A;}
	.st9{fill:#F0F3F5;}
	.st10{fill:#16478B;}
	.st11{fill:#D4DFE9;}
	.st12{fill:#1E498A;}
	.st13{fill:#14488E;}
	.st14{fill:#01428A;}
	.st15{fill:#0D3E81;}
	.st16{fill:#0E458B;}
	.st17{fill:#114386;}
	.st18{fill:#0B4288;}
	.st19{fill:#023E87;}
	.st20{fill:#CFDEEA;}
	.st21{fill:#D7E3EA;}
	.st22{fill:#D0DCE6;}
	.st23{fill:#0F4083;}
	.st24{fill:#0C3C81;}
	.st25{fill:#CBDAE7;}
	.st26{fill:#224F89;}
	.st27{fill:#033880;}
	.st28{fill:#3B5D92;}
	.st29{fill:#DBE8ED;}
	.st30{fill:#3D6AA2;}
	.st31{fill:#C4D4E4;}
	.st32{fill:#1FA459;}
</style>
<g>
	<path class="st0" d="M569.2,551.6c6.6-7.3,8.7-13.1,0.4-20.9c-6.2-5.9-10.6-13.7-16-20.6c-20.5-26.2-40.9-52.5-61.7-78.5
		c-3.7-4.6-6.1-9.3-7.1-14.7c-4-19.9-10.2-39.2-16.6-58.5c-1.1-3.2-5.8-16.9-7.8-20.6l0,0l0,0c-8.5-23.4-19-45.9-31-67.7
		c-10.2-18.3-10.3-18.2-30.5-13.3c-1.9,0.5-3.6,1.2-5.3,2c-8.9,4.2-12.1,2.7-13.5-5.8c2.1-2.4,4.6-3.7,7.8-2.3
		c20.5-4.6,37.7-14.7,55.1-26.6c36.6-25.1,47.7-95.7,15.6-130.7c-3.5-5.1-7-10.2-13.4-12.1c0,0-14.6-10.9-23.6-14.8
		c-8.9-3.9-9.3-18-17.5-24.9c-1.2-1-2.1-2.4-3.3-3.5c-12.2-11.7-21.1-24.2-40.5-27.9c-14.7-4.1-20.5-5.1-38.4-5.1
		c-4.2-0.1-9.6,0.8-18.4,3.2c-12.8,1.7-26.5,9.9-37.6,15.8c-18.2,9.6-36.1,19.9-53.1,31.6c-4.9,1.5-11.9,0.3-17.7,0.5
		c-17.5,0.9-43.8,1.4-51,2.3c-5.3,0.7-11.9,0.5-16.5,1.8C92,70.9,65.5,94.7,49.4,128.2c-16.7,34.7-18.3,69.9,5.6,103
		c2.2,4.2,5.5,7.4,9.4,10l0,0l0,0c8.2,7.8,36,15,39.4,15.8c5.3,1.3,10.6-3.3,15.8,0.2c0.2,3.1,0.7,9.4,0.7,9.4
		c-0.3,2.4,3.7,32.3,5.1,45.1c0.4,4.2,1.1,8.4-4.4,9.9l0,0c-15,3.5-26.5,6.3-42.9,9.8c-4.9,1.4-8.5,1.3-15.3,3
		c-8,1.3-10.7,4.3-3.8,11.1c3.4,3.4,6.1,7.5,9.1,11.2c24.5,30.8,44.9,64.1,60.7,100.2c2.9,6.7,2,10.2-3.9,14.3
		c-6.2,4.3-26.9,22.5-26.8,21.9c-4.1,2.6-7.5,6-10.4,9.8l0,0l0,0c-16.7,14.6-32.2,30.3-46.9,46.9c-3.9,4.1-7.9,8.2-11.8,12.3
		c0.7-0.1-5.5,6.6-7.3,7.4c-3.2,1.3-2.1,3.7,0.1,6.1c17.6,19.8,57.3,63.1,58.4,65.9c5.8,6.1,8,11.2-2,16c-4.6,2.2-6.4,6.5-1.8,12.4
		c15.3,19.2,30,38.9,44.4,58.7c4.3,5.9,7.9,6.2,12.4,1.4c5.1-5.4,11.6-8.9,17.4-13.6c0.2,1,0.6,1.7,0.5,2.3c-8.7,27-17.4,54-26.2,81
		c-0.8,2.5-2.2,4.4-5,5.6c-6.9,3-12.5,8-18.7,12.1c-26.2,17.4-34.6,55.2-22.9,85.5l0,0c47.3,0.7,94.6,0.9,141.9-0.1l0,0l0,0
		c3.5-3.1,2.5-7.6,3.6-11.5c0.2-1.8,0.6-5.4,0.6-5.4s1.8-5.5,1.4-8.4c0.9-6.5,1.1-13.1-0.1-19.6l0,0l0,0c-1.6-16-10.8-27.6-21.1-39
		c-4.2-4.7-13.8-5.7-13.2-12.4c0.5-5.7,12.6-20.2,13.7-22.2c6.4-12,13.9-22.6,29.4-22.7c1.8-0.2,5.3-0.7,5.3-0.7s26.3-4.3,35.5-5.9
		l39.9-7.3c0,0,25.7-2.9,35.5-6c-0.3-0.3,3.2-1.6,5.4-0.6c3.3,3.5,0,6.7-0.8,9.7c-10.4,37.3-21.2,74.3-31.8,111.3
		c-1.9,7.7-6,15.1-4.1,23.5l0,0c0.6,2.4,1.1,4.9,3.8,5.9c2.2,3.4,5.7,4.1,9.3,4.1c43.8,0,87.5,0.1,131.3,0.1c2.8,0,5.5,0.1,4.5-4
		l0,0l0,0c0.2-7.5-1.3-22.3-1.3-22.3l0,0c-0.3-3.7-0.5-7.4-0.8-11.2l0,0c-1-15.5-8.9-27.5-20.1-37.3c-15.5-13.7-34.9-12.5-53.5-11.5
		c-1.1-2.8,0.2-3.9,0.9-5.3c21.8-39,42.8-78.4,60.7-119.4c2.2-5,4.3-4.5,8-2c8.4,5.7,17.1,10.9,25.5,16.6c2.6,1.8,4.2,3.1,7.4,0.3
		c19.3-16.8,38.8-33.4,58.2-50c7-4.7,0.3-5.9-2.1-8.2l0,0l0,0c-6.5-10.2-12.6-20.6-19.8-30.4c-3.9-5.4-2.9-10.1,0.6-13.7
		C546,583.1,556,566,569.2,551.6z M232.4,760.9c0-0.1,0.1-0.1,0.1-0.1h0.1C232.5,760.9,232.5,760.9,232.4,760.9z M301.4,748.9
		L301.4,748.9L301.4,748.9L301.4,748.9z M373,202.3c-1.8-11.2-3.9-22.4-5.9-33.7c-2.5-7.5-1.3-9.9-2.5-12.3
		c-3.5-8.6-2.3-5.7-8.8-7.6c-5.1-0.6-10.9,0.8-14.6-1.7c-4.1,0-8.3,0.7-12.2-0.2c-4.4-1-1.2-2.6,0.4-3.8c20.6,4.1,40.8,3.6,59.3-7.3
		c5.1-3,7.7-2.3,10.6,1.7c4.5,6.1,6.9,13.2,9.5,20.3c3.5,9.6,7.7,11.3,17.3,7.9c8.4-3,16.2-6.9,23-12.7c-6.8,25.4-24.9,39.8-48,49.4
		c-5.9,2.5-12.1,4.4-18.4,6C376.5,209.9,374,208.3,373,202.3z M467,886c0.2-0.1,0.2,0.1,0,0.2C467,886.1,467,886.1,467,886z"/>
	<path class="st1" d="M384.5,233.9c0.9-6.7,4.5-4.1,7.8-2.3C389.8,232.4,387.2,233.1,384.5,233.9z"/>
	<path class="st2" d="M209.1,577.2c-5.3-3.1-11-5.3-17-6.5c-2.1-15.9-4.4-31.8,1.5-47.3c1.2-2.5,4.9-4.2,2.8-7.9
		c-2.1-5.3,1.5-10.2,1.1-16.3c-14,7.3-26.2,16.5-39.1,24.6c-13.9,8.6-27.6,17.6-41.5,26.3c-9,5.6-9.2,7-3.7,16.3
		c4.5,7.5,10.3,13.3,18.2,17.3c11.7,5.9,22.9,12.7,34.4,18.9c6.3,3.4,9.4,8,10.8,15.2c1.9,9.3-0.1,19.1,3.4,28.1
		c-1.3,6.3-7.9,6-11.7,9.4c-7.9,7.1-16.9,13.1-25.1,20c-5.3,4.5-8.4,4.7-12.7-1.8c-5-7.5-9.6-15.4-16.7-21.4c-2.5-2.1-3.4-5.1,0.5-8
		c6.7-4.9,12.7-10.7,19.2-15.9c3.5-2.8,3.2-5.1-0.1-7.7c-3-2.4-6.5-4.5-8.7-7.6c-2.8-3.8-5.1-3.1-8-0.7c-1.6,2.1-3.2,4-6.1,1.9
		c-3.3-2.8-3.6-7.8-7.8-9.9c-2.9-1.2-38.2-41-39.3-43.9c-2.6-3.2-6.2-6.3-2-10.8c1.7-3.6,4.2-6.5,7.8-8.2
		c4.6-3.9,37.7-43.6,41.4-45.3c10.5-11.1,47.5-49,51.3-54.9c-0.8-2.3,4.7-2.7,1.7-5.7c-3.1-4.9-5.6-9.4-7.9-14.3
		c-14.6-30.5-31.3-59.6-51.3-86.9c1.2-3.3,4.9-1.6,6.4-3.8c3.7-1.6,61.6-13.1,67.5-15.5c4-2.3,161.7-39,183.8-44.4
		c2.3-0.6,30.9-6.9,34.7-9c2.7-2,5.6-2.7,8.9-2c26.7,47.9,46.7,98.4,57.6,152.2c0.4,1.9,1.1,3.7,1.7,5.6c4.4,15.8,4.3,32.2,7.1,48.2
		c-0.7,17.1,1.6,34.3-1.2,51.4c-0.5,7,1.5,11.2-4.7,52.7c-2.3,4.7-4.8,19.9-4.9,22.5c-1.6,4.5-1.9,9.4-4.1,13.7
		c-4.3,12.6-13.7,43.3-15.7,45.4c-4.7,9.1-9.4,18.2-13.9,27.4c-2.2,4.5-5.1,8.1-9.8,10.1c-2.3,2.2-5.1,0.8-7.7,1.2
		c-10.3,2.6-21,2.6-31.2,5.5c-4.1,0.7-81.4,11.8-99.4,14.8c-6.9,1.9-40.8,7.3-42.7,6.7c-3.5,0.4-7,0.8-11.6,1.3
		c1.4-3.9,2.8-7.3,3.8-10.8c0.4-1.4,0.6-3.5-1.1-4.4c-1.9-0.9-2.6,0.8-3.6,2.2c-20.5,28.6-40.8,57.4-58.6,87.8
		c-2.9,5-1.3,7.7,2.6,10.1c3.9,2.4,8.1,4.2,12,6.6c12.1,7.3,22.1,16.3,25.2,31c0.9,9.9,2.5,19.9-3,29.1l0.3-0.3
		c-2.3,3.2-5.8,2.6-8.9,2.6c-26.7,0.1-53.4,0.1-80.1,0c-3.2,0-6.6,0.6-8.9-2.6c-3-14.6-2.1-28.4,6.1-41.5c5.6-9,14-14.6,23-18.2
		c12-4.8,16.9-12.9,20.2-24.8c10.6-38.7,25.3-76.1,37.6-114.3c3.3-10.3,13-13.2,19.3-19.9c2.2-22.6,0.5-45.3,0.9-67.9
		C212.1,580.8,210.4,579.1,209.1,577.2z"/>
	<path class="st2" d="M451.4,148.9c-0.8,1.3-1.5,2.7-2.3,4c-6.1,10.9-17,13.8-28,16.1c-6.2,1.3-10.8-1.7-13.4-7.5
		c-2.5-5.4-4.4-11-7.1-16.3c-3.1-6.1-6.6-9-13.9-5c-16.6,9.2-35,6.9-53,7.1c-2.4,0-4.4-1.1-5.7-3.3c-3-10.9-0.8-21.4,2.9-31.8
		c2.9-8.1,2.3-8.9-5.7-7.2c-64.6,13.5-126.9,33.5-184.9,65.7c-2.4,1.1-4.7,2.3-7,3.4c-18.7,8.8-30.2,5.1-41.1-12.6
		c-8-12.9-9.4-26.8-7.2-41.4c0.4-2.9,1.6-5.7,1.2-8.7c1.5-2.7,2.8-5.3,5-7.8c16.9-19.2,38.1-30.3,62.7-35.6
		c17.1-4.5,34.8-2.9,52.2-4.7c3.2-0.3,6.5,0.5,9.7-0.8c15.9-0.6,28.2-9.6,41-17.4c17.7-10.8,35.6-21.4,55.8-27.1
		c3.1-0.9,6.2-1.9,9.3-2.8c8.2-2,16.5-2,24.8,0c23.5,4.9,41.1,17.4,51.4,39.5c2.1,2,3.6,4.3,2.8,7.4c2.4,6.7,8.8,6.4,14,8.1
		c3.2,1.1,7,1.1,8.8,4.7c23.6,14.1,31.9,35.7,30,62.1C455.6,141.7,452.9,145.2,451.4,148.9z"/>
	<path class="st3" d="M230.9,168.9c-8.5,1.7-16.9,3.8-25.5,5c-3.1,0.4-5.5,1.9-8.2,2.8c-5.5,4.1-11.6,6.7-18.4,7.6
		c-8.4,1.8-14.3,9-22.9,10.3c-0.5-5.6,3.3-6,5-6.2c-5.2,0.1-12.7-1.4-20.2-1.5c-2,0-3.9-0.6-5.7-1.4c-3.1-1.5-5.7-3.3-6.1-7.1
		c-0.4-3.9,3-4.6,5.4-6.1c1.9-1.2,4.4-1.3,5.7-3.6c32.9-18.3,67-34,103.1-45.1c28.1-8.6,56.6-15.7,85.3-21.9
		c2.6-0.6,5.7-3.5,8.1-0.3c1.8,2.4-0.3,5.2-1.3,7.4c-5.1,11-6.7,22.5-5.7,34.4c-1.2,3.1,1.2,2.8,2.9,3c3.1,0.3,6.2-0.6,9.2,0.7
		c0.5,0.9-1.7,2.4-1.7,2.4c-3.8,2.8-8.8,0.8-12.8,2.9c-7.1,1.1-14.1,2.7-21.3,1.2c-2.9-0.2-5.7-0.2-8.3,1.4c0.5,5.1,6.2,1.2,7.7,4.5
		c2,1.5,16,3.6,18.3,3.3c2.3,1,2.9,0.6,4.1,1.6c3.9,0.4,7.8,0.7,11.7,1.1c1.3,0.7,3.8,0.4,3.8,2.3c0,2.5-2.5,2.9-4.4,2.7
		c-8.8-0.7-17.8-1.1-26-4.3c-4.1-1.6-7,2-9.8,2c-23.2-0.5-46.5-0.1-69.7-0.3C232.1,167.7,231.3,167.7,230.9,168.9z"/>
	<path class="st4" d="M502.7,462.9c15.2,16.6,27.7,35.2,41.9,52.6c2.8,3.4,1.4,6.6-0.9,9.8c-12.8,16.8-25.4,33.8-38.3,50.5
		c-3.4,4.4-3.3,8.2-0.4,12.5c6.2,9.2,12.1,18.7,18.8,27.6c3.6,4.9,3,7.7-1.7,11.1c-7.9,5.8-15.6,12-23.1,18.3
		c-3.3,2.7-5.7,2.9-9.5,0.6c-17.8-10.6-17.9-10.4-9.9-33.8c0.1-5.5,13.3-57,13.5-56.8c0.2-9,3.8-17.5,3.9-26.5
		c2.1-18-1.8-52.5-1.3-70.5C495.7,453.9,499.2,460.3,502.7,462.9z"/>
	<path class="st4" d="M180,645.9c-4.9-0.3-4.3-3.9-4.5-7.2c-1.8-30-1.9-29.8-28.7-43.9c-15.5-8.2-32.1-15-39.5-33.3
		c-1.8-4.6-2.4-6.9,1.8-9.5c29.6-18.7,59.1-37.4,88.7-56.1c0.7-0.4,1.8-0.3,2.7-0.4c2.9,7.1-6.2,13.4-1,20.4
		c0.5,2.8-2.1,3.3-3.5,4.7c-1.4,1.1-2.8,2.1-4.7,1.1c-18.5,10.8-37.9,20.1-55.3,32.6c-0.4,1-0.7,2.1-1.3,3c-0.6,0.4-1.2,0.7-1.9,1.1
		c-1.2,2.4,0,4.7,0.2,7c0.3,0.8,0.5,1.5,0.9,2.2c0.1,0.4,0.3,0.7,0.4,1.1c18.4,9.8,37.6,17.7,56.8,25.8c2.6,4.8,0.7,10,1.2,15
		c-1.7,9.3-0.4,18.8-1.3,28.2C188.1,641.6,184.6,644.4,180,645.9z"/>
	<path class="st5" d="M230.9,168.9c-1.3-0.1-2.5-0.3-3.8-0.4c0-0.4,0-0.8,0-1.2c26.8,0,53.6,0,82.6,0c-6.3-4-12.6-0.2-16.6-6.3
		c15.3,2.5,30,4.8,44.6,7.1c1.2,0.2,2.4,0.1,3.6,0.1c-0.7-1-1.3-2-2-2.9c6.7-1.1,6.2,3.2,5.8,7.5c-11.8,1.8-23.3-1.2-34.8-2.4
		C283.8,167.6,257.3,169.6,230.9,168.9z"/>
	<path class="st6" d="M209.1,577.2c3.2,0.5,4,2.5,4,5.6c-0.1,21.8,0,43.5-0.1,65.3c0,1-1.3,2-1.9,3c0-19.9-0.1-39.7,0-59.6
		C211.2,586.6,210.7,581.9,209.1,577.2z"/>
	<path class="st7" d="M191.4,521.8c1.3-0.8,2.5-1.5,3.8-2.3c2.1-0.8,2.6,0.2,2.1,2c-4.7,4.4-6.5,9.6-6,16.3
		c0.8,10.9,0.6,21.9,0.9,32.8c-0.8-0.9-2.3-1.8-2.3-2.7C189.9,552.6,187.6,537.1,191.4,521.8z"/>
	<path class="st8" d="M178.8,184.3c5.7-3.6,11.8-6.2,18.4-7.6c-4.7,6.3-11.8,9.8-17.4,14.9C177.8,189.4,186.9,185.7,178.8,184.3z"/>
	<path class="st9" d="M169.6,561c-4.5,0.2-7.7-2.9-13.1-4c4.6-3.2,7.9-5.5,11.2-7.8C173.7,552.3,170,556.9,169.6,561z"/>
	<path class="st10" d="M191,610.4c0-5.3,0-10.5,0.1-15.8c4.1,13,2.8,26.2,0.7,39.4C189.1,626.2,190.5,618.3,191,610.4z"/>
	<path class="st11" d="M191,610.4c0.3,7.8,0.5,15.7,0.8,23.5c-0.3,1.3-0.6,2.5-0.9,3.8C188.6,628.6,188.4,619.5,191,610.4z"/>
	<path class="st12" d="M260.2,259.6c-1.4-0.1-2.8-0.2-4.1-0.2c5.8-2.5,12-2.8,18.1-3.5c0,0.6,0,1.1,0,1.7
		C269.6,258.7,265,260,260.2,259.6z"/>
	<path class="st13" d="M165.2,281c4.3-2.6,9-3.5,13.9-4.1C175.7,282.5,170.2,280.9,165.2,281z"/>
	<path class="st14" d="M455.5,137.2c0-5.1,0-10.2,0-15.2C456.7,127.1,459.3,132.3,455.5,137.2L455.5,137.2z"/>
	<path class="st15" d="M169.6,561c-0.9-3.9,2.2-8.4-1.9-11.8c1.2,0.1,3.5,0.2,3.5,0.3C171.4,553.4,173.2,557.6,169.6,561z"/>
	<path class="st16" d="M481.5,601c-0.9,3.8-1.8,7.6-2.7,11.3c-3.6-4.4-0.3-8.2,1.1-12.1c0-0.1,0.6,0,0.9,0.1
		C481.1,600.4,481.2,600.7,481.5,601z"/>
	<path class="st17" d="M451.4,148.9c0.8-3.9,1.6-7.8,2.4-11.7c0.6,0,1.1,0,1.7,0l0,0C455.4,141.6,455.9,146.1,451.4,148.9z"/>
	<path class="st18" d="M79.7,119.7c-1.7,3.8-3.4,7.7-5.1,11.5"/>
	<path class="st19" d="M133.7,556.5c0.8-0.7,1.5-1.4,2.3-2c-0.4,4.8,1.8,9.9-1.7,14.4l-0.1,0.1C131.4,564.9,131.9,560.7,133.7,556.5
		z"/>
	<path class="st20" d="M165.9,206.6c-4.8,3.4-14.8,14.3-16,15.3c0.8,9,4.2,35.8,4.4,39.6c0.4,3.3,0.8,6.6,1.2,9.9
		c-0.2,0-0.3,0.2-0.3,0.6c-1.7,3.6-2.6,7,0.5,10c0.3,0.4,0.7,0.7,1.2,1l0,0l0,0l0,0c2.7-0.7,5.5-1.4,8.2-2.1c4.6-1.5,9.8-1,13.9-4.1
		c2.1-1,4.3-2,6.4-3.1C181,250.8,173.7,228.6,165.9,206.6z"/>
	<path class="st21" d="M138.8,184.2c-3.3-0.2-7.4-1.6-8.1-5.8c-0.7-3.9,3.5-4,5.5-5.7c1.4-1.2,5-0.4,3.8-4c-3.3,1.4-6.6,2.6-9.9,4.1
		c-15,6.8-22,5.2-32.2-7.7c-10.6-13.4-13.2-28.7-10.1-45.1c0.6-3.1,2.7-6.3-1.6-8.4c-2.2,2.7-4.3,5.5-6.5,8.2
		c-2.4,3.7-2.5,5.8-5.1,11.5c-1,4.7-2.1,9.4-3.1,14c-2.6,9.8-2.3,19.6,0,29.3c0.3,7.4,3.4,13.8,7.1,20c2.1,3.9,4.7,5.6,7.2,9.3
		c2.7,2.2,12.2,6.6,15.2,7.8c5.8,2,11.6,2.2,17.5,0.2c3.8,0,20.7-5.8,20.7-5.8c5.8-2.1,12.2-5.9,17.2-9.6c3.8-2.7,6.5-3.5,10-6.1
		C158,188.1,147.2,184.6,138.8,184.2z"/>
	<path class="st22" d="M327.4,150.8c3.8-3.1,8.2-1.2,12.4-1.5C339.4,149.7,331.1,150.7,327.4,150.8z"/>
	<path class="st22" d="M352.9,148.8"/>
	<path class="st23" d="M400.9,62.3c-0.9-2.5-1.9-4.9-2.8-7.4C402.7,55.9,402.9,58.7,400.9,62.3z"/>
	<path class="st24" d="M423.8,75.1c-2.9-1.6-5.9-3.1-8.8-4.7C418.8,70.2,422.7,70,423.8,75.1z"/>
	<path class="st2" d="M356.3,218.3c0-0.3-7.3-40.9-9.6-43c-0.6-0.8-1.1-1.7-1.7-2.5c-2.6-1.5-5.4-2.2-8.4-2.6
		c-34.4-4.7-69-4.7-103.6-3.7c-12,2.9-24.8,2.1-36,8.2c-6.2,5.2-12.6,10.2-17.4,16.9c-4.6,5-9.2,10-13.8,15c-1,8.5,2.8,16,5.2,23.7
		c4.5,14.6,7.2,29.8,14.4,43.6c9.2-2,18.4-4,27.6-6.1c9.6,0.2,38.1-7.7,43.4-7.7c5.5-1.7,11.3-2.5,17-3.3c0.1,0.2,54-6.3,81-5.6
		c0.8,0,6.1-5,5-7.6C362.4,234.7,356.6,226.8,356.3,218.3z"/>
	<path class="st0" d="M440.7,547.4c-1.7,11.5-4,22.9-6.6,34.2c-6.5,32.9-36.5,61.2-72.5,68.2c-4.1,0.8-8.3,1.1-12.5,1.6
		c-8.4,2.8-17.3,1-27.5,0c-2.3,0.3-9.9-2.9-11.8-2.2c-40.2-11.9-58.2-41.7-65.1-80.5c-0.8-4.5-1-9.1-1.5-13.6
		c1.5-14.2,0.1-28.4-1-42.6c-2-7.8-0.7-14,8.3-16.2c14.9-4,29.6-8.1,44.7-11.4c10.6-2.3,21.4-6.6,32.2-9.3
		c20.1-5.1,71.4-15.9,76.1-19.4c10.5-5.3,22.7-4.3,33.4-9.2c3.4-1.5,4.5,1.1,4.7,4.1c0.5,9.1,1.1,18.2,1.7,27.3
		C442.2,495.4,445.5,520,440.7,547.4z"/>
	<path class="st20" d="M404.2,316.1c-0.1,5.4-2.8,8.7-7.8,10.1c-34.6,9.3-69.4,18.4-103.9,28c-7.7,2.1-10.2-2-11.9-7.7
		c-1.9-6.3,1.2-10.1,7.2-11.6c35.3-9.3,70.7-18.4,105.9-28.1C403.2,304.1,402.5,310.9,404.2,316.1z"/>
	<path class="st25" d="M316.4,392.5c-1.6,0.3-3.4-1.7-4.2-4.3c-1.2-3.6,0.5-6.9,3.5-8.4c12.3-6.4,25.9-9,39.4-11.1
		c3.4-0.6,5.4,3.2,5.8,6.8c0.4,3.2-0.2,6.1-3.8,7C344.1,385.8,331.1,388.9,316.4,392.5z"/>
	<path class="st26" d="M311.3,426.1c-0.2-1.2-2.7-7.7-3.4-9.7c-5.9-17.1-11-35-31.8-40.4c-4.4,0-6.9,0-11.7,0.1
		c-6.4,1.3-11.2,5-14.7,10.4c-12,18.4-14.4,38.4-10.5,62.5c4.4-11,7.7-19.4,11.2-27.6c4.1-9.9,8.1-20,18.1-25.8
		c2.5-2,4.9-1.8,7.2,0.2c4.1,3.2,8.1,6.4,12.2,9.6c3.9,4.1,7.8,8.3,11.8,12.4l0,0c2.5,3.1,5,6.2,7.5,9.4c0.8,1.7,1.7,4.4,3.5,3.9
		C312.9,430.5,311.5,427.9,311.3,426.1z"/>
	<path class="st27" d="M408.1,346.6c-7-2.7-13.9-3.9-20.3,1.3l0,0l0,0c-10.4,5.8-15.5,14.2-16.5,25.4c-2,11-2.1,17.2-1,33.2
		c0,0,1.5,8.6,3.6,12.7c2.7-6.7,2.9-9.9,2.9-9.9c1.7-7.3,1.7-9.3,3.5-13.9l0,0c1.2-3.3,2.4-6.6,3.5-10c2.3-7.8,5-15.4,13.1-19.2
		c2.3,0,4.6,0,6.9,0l0,0l0,0c11.1,3.5,16.7,13.8,25,21.9C430.8,371.3,421.5,353.3,408.1,346.6z"/>
	<path class="st28" d="M197.3,521.5c-0.7-0.7-1.4-1.4-2.1-2c1.5-1.2,2.9-2.4,4.4-3.6C203.9,519.8,198.6,519.9,197.3,521.5z"/>
	<path class="st29" d="M132.5,568.8c-3.8-3.4-1.8-7.7-1.8-11.7c0-0.2,0.5-0.5,0.7-0.5c0.3,0,0.6,0.2,0.9,0.3
		C133.8,560.9,133.5,564.9,132.5,568.8z"/>
	<path class="st30" d="M132.5,568.8c-0.1-3.9-0.2-7.9-0.2-11.8c0.5-0.2,1-0.4,1.5-0.6c0.1,4.1,0.3,8.3,0.4,12.4
		C133.6,569,133,568.9,132.5,568.8z"/>
	<path class="st2" d="M331.4,530.1c-19.2,4.3-63.2,13.1-65.6,15c-5.3,2.4-5.6-0.9-5.8-4.9c-0.3-6.4-3.5-28-1-32.3
		c38.6-10.5,77.2-21,115.8-31.5c1.5-0.4,24.8-9,29.9-6c2,8.1-0.7,15.9-1.4,23.8c-1,7.2,2.6,15.2-3.9,21.3
		C389.2,518.1,344.3,529.9,331.4,530.1z"/>
	<path class="st31" d="M326.7,151.7c-2.2,0,1.1-1.5,2.9-2.8c0.7-0.5,1.2-1.6-0.6-2c-4.4-1-1.2-2.6,0.4-3.8
		c20.6,4.1,40.8,3.6,59.3-7.3c5.1-3,7.7-2.3,10.6,1.7c4.5,6.1,6.9,13.2,9.5,20.3c3.5,9.6,7.7,11.3,17.3,7.9c8.4-3,16.2-6.9,23-12.7
		c-6.8,25.4-24.9,39.8-48,49.4c-5.9,2.5-12.1,4.4-18.4,6c-6.3,1.5-8.7,0-9.7-6c-1.8-11.2-3.9-22.4-5.9-33.7
		c-1.8-7.3-2.3-10.1-3.2-12.6c-2.4-6.7-3.2-5.6-7.9-6.3c-4.1-0.5-18.6,2.3-26.1,2.2C328.1,152,327.5,152.2,326.7,151.7z"/>
</g>
<g>
	<path class="st32" d="M749.5,300.3c0-44.2-0.1-88.4,0.1-132.7c0-6.5-1.6-8.8-8.5-8.7c-23.8,0.4-47.7,0-71.5,0.3
		c-6.7,0.1-9.2-2.3-9.2-8.8c0.1-28.2,0.1-56.4,0-84.6c0-5.2,1.8-7.4,7.2-7.4c52.3,0.2,104.5-0.9,156.8-0.2
		c35.5,0.5,71,0.1,106.5,0.1c9.5,0,9.5,0,9.5,9.7c0,27.7,0.1,55.4-0.1,83.1c0,4.7,0.8,7.4,6.3,7c4.3-0.3,8.7,0.3,13.1,0.4
		c25.2,0.9,50.4-1.9,75.5,1.5c2.9,25.1,0.7,50.4,1.2,75.5c0.4,25.7,0.2,51.5,0.3,77.3c0,5.4,0.7,10.7,2.2,15.8
		c4.9,15.9,18.9,24.8,36,23.1c16.8-1.7,30.2-14.7,31.7-31.1c0.5-5.5,0.8-11.1,0.8-16.7c0.1-45.4,0.1-90.9-0.1-136.3
		c0-6.7,1.5-9.3,8.9-9.2c25.7,0.5,51.5,0.2,77.3,0.2c10.6,0,10.7,0.1,10.7,10.4c0,50.3,0,100.6,0,150.9c0,2.2,0,4.4,0.1,6.6
		c0.6,11.6,5,16.8,16.5,18.3c5.3,0.7,8.4,2.3,8.3,8.5c-0.4,27.7-0.5,55.4-0.7,83.1c0,3.6-0.7,6.1-5.2,6.1
		c-18.2-0.1-36.5-0.1-54.5-3.7c-18.3-3.7-33.5-13.1-44.4-28.3c-4.3-6-6.5-5-10.3,0.3c-36.3,50.9-111.4,47.7-146.4,11
		c-19.6-20.5-27.2-45.5-27.4-73.1c-0.3-60.3-0.3-120.5-0.2-180.8c0-7.1-2-9.1-9-8.9c-23.3,0.4-46.7,0.1-70,0.2c-9.6,0-9.6,0-9.6,9.9
		c0,86.5,0,173,0,259.5c0,17.3-0.2,13.8-14.2,14c-25.5,0.3-51.1,0.3-76.6,0.4c-11.1,0.1-11.3-0.1-11.3-11.4
		C749.5,387.8,749.5,344,749.5,300.3z"/>
	<path class="st32" d="M1247,241.8c0-63.7,0-127.3,0-191c0-9.1,0.2-9.4,9.4-9.4c25.5,0,51.1,0,76.6,0c10.1,0,10.3,0.2,10.3,10
		c0,58.6,0,117.1,0,175.7c0,1.2-0.1,2.4,0,3.6c0.3,2-1.2,4.9,1.3,5.9c2.6,1,3.5-1.9,4.8-3.5c6.9-8.5,13.7-17,20.5-25.6
		c10.3-12.9,20.7-25.7,30.7-38.9c5.6-7.4,12.6-10.8,21.9-10.7c33.5,0.3,67.1,0.4,100.6,0.7c2.3,0,5.5-1.3,6.7,1.1
		c1.4,2.8-1.6,4.8-3.2,6.7c-29.6,33.8-59,67.7-88.9,101.3c-4.8,5.4-5.2,9.5-1.1,15.2c7.1,9.9,14,19.9,20.2,30.3
		c13.4,22.4,33.3,32.2,58.9,32c16-0.2,13.8,0.1,13.6,13.7c-0.3,25-0.2,50,0,75.1c0.1,6.1-1.5,8.6-8.2,8.4
		c-20.9-0.5-41.9,0.2-62.5-3.9c-32.7-6.4-57.9-24.2-76.5-51.4c-6.4-9.4-12.3-19.2-18-29.1c-2.6-4.6-4.6-5.6-9.4-2.2
		c-8.2,5.9-12.2,12.7-11.8,23.2c0.8,18.4,0,36.9,0.3,55.4c0.1,6-2,8-8,7.9c-26.7-0.3-53.5-0.3-80.2,0c-6.5,0.1-8.3-2.1-8.3-8.4
		c0.2-43.5,0.1-87,0.1-130.5C1247,283.1,1247,262.4,1247,241.8z"/>
	<path class="st32" d="M1547.4,300.8c0-43.5,0-87,0-130.4c0-12,0-11.8,11.7-11.8c20.2,0,40.3-0.4,60.5-0.5c6.1,0,12.1,0.6,18.2,0.5
		c4.8-0.1,6.3,2,6.2,6.6c-0.2,12.9-0.1,25.7-0.1,38.6c0,76,0,152,0,228.1c0,10.6,0,10.4-10.4,10.4c-25,0-50.1,0.1-75.1,0.3
		c-11,0.1-11,0.2-11-10.6C1547.4,388.3,1547.4,344.6,1547.4,300.8z"/>
	<path class="st32" d="M1537.5,74.2c0.1-34.6,24.4-59.9,57.8-59.9c34.7-0.1,58.8,24.6,58.8,60.2c0,34.7-24.7,59.8-58.8,59.8
		C1562.1,134.2,1537.4,108.5,1537.5,74.2z"/>
</g>
<g>
	<path class="st0" d="M935,789.4c0.1-5.6-3.7-0.3-5.7,0.3c0,0,0,0,0,0c0,0,0,0,0,0c-4,2.2-8.1,4.5-12.1,6.7
		c-8,3.4-16.1,6.7-24.1,10.1c0,0,0,0,0,0c-5.8,3.3-12.8,4.6-19.5,6c-14.8,1.8-27.8,0.6-41.6-2.3c-17.7-3.9-36.5-9-48.1-22.2
		c-48.1-54.8-33.6-144.1,39.9-166.3c19.3-3.5,38.7-3.8,58.1-0.9c16.6,5,32.5,11.4,47.2,20.8c5.8,5.6,6,1.1,6-3.4
		c-0.2-31.2-0.5-62.3-0.8-93.5c0,0,0,0,0,0c0,0,0,0,0,0c-7.3-6.4-16.2-7.4-28.6-11.3c-19.4-7.4-28.3-9.2-50.1-10.8
		c-10.8-0.8-24.6,0.6-35.3,2.4c0,0,0,0,0,0c0,0,0,0,0,0c-35,3.8-67.3,14.4-94.5,37.8c-5.2,2.4-6.7,6.1-12.5,11h0c0,0,0,0,0,0
		c-20.6,19.6-37.2,41.8-43.7,70.2c-11.5,43.5-12.2,87.1-3,131.1c16.1,56,51.1,94.2,106.4,113.4c5.5,2,17.2,5.6,17.2,5.6
		c48.9,10.9,96,4.1,142-15.3c0.4-0.3,1.1-0.5,1.1-0.9C937.8,848.5,934.6,818.9,935,789.4z"/>
	<path class="st0" d="M1211.5,880c0.3-29.4,0.6-58.9,0-88.3c-0.7-35.2,3.1-70.6-3-105.7c0,0,0,0,0,0c0,0,0,0,0,0
		c-0.4-33.2-34.9-67-67.3-67.3c-13.7-1.7-27.3-1.5-41,0.1h0c0,0,0,0,0,0c-16.6,2.3-31.6,9.6-47.5,16.9c0-34.9,0.1-68.2-0.1-101.6
		c0-4.5,2.6-9.8-2.3-13.6c-25.9-0.3-51.8-0.1-77.6-1c-9-0.3-11.6,2.1-11.4,11.3c0.6,30.4,0.3,60.8,0.3,91.2
		c0,85.8,0,171.6-0.1,257.4c0,7.7-1,13.8,10.8,13.3c25.9-1.2,51.9-0.7,77.9-0.9c0,0,0,0,0,0c0,0,0,0,0,0c5.4-3.5,2.5-8.9,2.5-13.2
		c0.2-51.3,0.1-102.7,0.2-154c0-4.6-1.4-9.2,3.3-13.4c20.9-18.5,55.4-8.2,62.2,19c-0.1,50.9-0.2,101.9-0.1,152.8
		c0,2.9-2.3,7,2.5,8.8c29.4,0,58.9,0,88.3,0c0,0,0,0,0,0c0,0,0,0,0,0C1214.1,888.7,1211.5,883.9,1211.5,880z"/>
	<path class="st0" d="M1482.6,763.7c-0.7-16.1,0.1-32.3-3-48.3c0,0,0,0,0,0c0,0,0,0,0,0c-3.9-25.5-12.7-47.6-32.4-66.3
		c-15.5-14.8-31.3-25.5-52.2-28.5c-25.8-7.9-51.2-7.4-76.1,3.5c-13.9,4.6-22.7,9.4-37.2,19.2c-8,6.4-13.5,13.8-19.6,22.4l-9,14.7
		c-7.9,12.9-6.3,12-14.7,34.7c-10,28.3-7.1,57-2.2,85.7c0,0,0,0,0,0c0,0,0,0,0,0c9.6,52.8,53.9,92.4,105.6,96.7
		c18.6,2.6,37.2,2.5,55.8,0.2c0,0,0,0,0,0c5.3-1.1,17.9-2.7,20.6-3c0,0,0,0,0,0c8.3-0.5,16.1-2.7,23.7-5.9h0
		c7.6-1.5,15-3.4,21.5-7.9c0,0,0,0,0,0c6.5-23.5,1.7-47.5,2.3-71.2c0.1-4.7-3.9,0.3-6,0.8c0,0,0,0,0,0c0,0,0,0,0,0
		c-15.6,6.6-31.1,13.6-48,16.4c-4.6,0.3-9.3,0.7-13.9,1c0,0,0,0,0,0c0,0,0,0,0,0c-5.9,0-11.9,0-17.8-0.1c-2.8-0.2-5.6-0.5-8.4-0.7
		c0,0,0,0,0,0c0,0,0,0,0,0c-25.4-7-44.6-19.9-47.2-48.8c48,0,96-0.4,144,0.3C1480.2,778.7,1483.1,774.9,1482.6,763.7z M1382.6,727.6
		c-19.5-0.6-39-0.3-58.5-0.4c-1.3-0.8-1.5-3.2,0.2-8.3c4.2-13.6,8.7-27,24.1-32.3c0,0,0,0,0,0c8.8-3.5,15.4-1.8,21.9,0
		c12.9,6.4,21.4,15.5,21.8,31.1C1392.2,725.2,1390.5,727.8,1382.6,727.6z"/>
	<path class="st0" d="M1669,667.6c-0.3-3.7-0.6-7.4-1-11.1c0,0,0,0,0,0c0,0,0,0,0,0c-3.1-16.6-10.4-29.4-28.9-32
		c-5.8-0.4-11.6-0.8-17.5-1.2c0,0,0,0,0,0c0.2-0.9,0.1-1.6-0.5-2.3c0.2-8.8,0.3-17.5,0.5-26.3h0c0,0,0,0,0,0c3.8-7.4,11-6,17.3-6.8
		c4.7,0.4,9.4,0.9,14.1,1.3l0,0c0,0,0,0,0,0c2.2,0.7,4.5,1.3,6.7,2c0,0,0,0,0,0c0,0,0,0,0,0c4.7,1.8,9.9,6,9.6-4.5
		c-0.6-18.3-0.6-36.7-0.4-55c0.1-6.3-2.1-8.9-8.2-8.5h0l0,0c-32.2-9.3-64.3-12.5-96.5,0.3c0,0,0,0,0,0
		c-20.4,5.1-31.1,19.5-36.6,38.7c-0.3,2.6-2.3,9.3-2.3,9.3c-2.1,13.1-0.7,21.6-0.9,33.2c-0.4,24-0.1,24.1-24.5,25.6
		c-2,0.1-3.8,0.2-4.6,2.4c-0.3,18.1,0.2,36.3-1,54.4c-0.9,12.8,2.2,19.2,16.2,16.6c10.7-1.9,15,1.3,14.8,13.8
		c-0.9,53.5-0.5,107-0.3,160.5c0,4.4-2.6,9.7,2.2,13.5c29.4,0.1,58.9,0.2,88.3,0.3c6.8-3.2,3.3-9.3,3.3-13.8
		c0.4-57.8,0.4-115.7,0.5-173.5c8.1-0.2,16.3,0.1,24.3-0.9c9.1-1.1,15.5,0.4,27.4-3.1c0,0,0,0,0,0c0,0,0,0,0,0
		C1671.4,689.5,1673.2,678.4,1669,667.6z M1669.2,689.6C1669.6,689.5,1669.5,689.6,1669.2,689.6L1669.2,689.6z M1619.3,704.1
		C1619.3,704.1,1619.3,704.1,1619.3,704.1c0.4-0.5,0.9-0.9,1.4-1.2C1620.2,703.2,1619.7,703.6,1619.3,704.1z"/>
</g>
</svg>
